<svg xmlns="http://www.w3.org/2000/svg" width="55" height="52"><path fill-rule="evenodd" fill="#181818" d="M51.459 16.105L31.66 1.802a7.106 7.106 0 0 0-8.335 0L3.527 16.105a7.009 7.009 0 0 0-2.576 7.881l7.562 23.143h.001a7.068 7.068 0 0 0 6.742 4.87h24.473a7.068 7.068 0 0 0 6.743-4.87l7.563-23.143a7.011 7.011 0 0 0-2.576-7.881zM6.771 27.752l.013.224-.411-1.258 13.403-11.787-.195-3.387 3.698-1.432 2.512 3.055-2.145 3.319-3.134-.818L6.771 27.752zm6.701 9.962L10.36 38.92l-1.654-5.062.701-1.086 3.03.792 9.864-8.673-.195-3.386 3.697-1.432 2.513 3.055-2.145 3.319-3.135-.819-9.765 8.587.201 3.499zm9.612-3.954l3.034.792L40.467 21.96l-.195-3.384 3.698-1.432 2.512 3.054-2.145 3.32-3.136-.819-14.254 12.508.202 3.495-3.698 1.432-2.512-3.055 2.145-3.319zm14.272 13.957l6.109-5.247-.622 1.905-3.891 3.342h-1.596zm10.233-17.865l-.655-.171-18.096 15.681.136 2.355h-5.722l-.424-.516 2.145-3.319 3.064.8 18.175-15.751-.194-3.37 3.404-1.318-1.833 5.609z"/></svg>